<svg width="160" height="160" viewBox="0 0 160 160" fill="none" xmlns="http://www.w3.org/2000/svg">
<path d="M80.0006 40C72.0894 40 64.3558 42.346 57.7778 46.7412C51.1998 51.1365 46.0729 57.3836 43.0454 64.6927C40.0179 72.0017 39.2258 80.0444 40.7692 87.8036C42.3126 95.5628 46.1222 102.69 51.7163 108.284C57.3104 113.878 64.4378 117.688 72.197 119.231C79.9562 120.775 87.9989 119.983 95.3079 116.955C102.617 113.928 108.864 108.801 113.259 102.223C117.655 95.6448 120.001 87.9112 120.001 80C119.989 69.395 115.77 59.2279 108.272 51.7291C100.773 44.2302 90.6056 40.0121 80.0006 40ZM80.0006 110C74.0672 110 68.267 108.241 63.3335 104.944C58.4 101.648 54.5549 96.9623 52.2842 91.4805C50.0136 85.9987 49.4195 79.9667 50.5771 74.1473C51.7346 68.3279 54.5918 62.9824 58.7874 58.7868C62.983 54.5912 68.3285 51.734 74.1479 50.5764C79.9673 49.4189 85.9993 50.013 91.4811 52.2836C96.9629 54.5542 101.648 58.3994 104.945 63.3329C108.241 68.2664 110.001 74.0666 110.001 80C109.992 87.9537 106.828 95.5792 101.204 101.203C95.5798 106.827 87.9544 109.991 80.0006 110ZM140.001 83.4869V76.5144L145.602 68.1119C146.437 66.8764 146.985 65.4708 147.209 63.9969C147.433 62.5231 147.326 61.0179 146.896 59.5906C145.585 55.2792 143.859 51.105 141.742 47.1269C141.038 45.8145 140.05 44.6755 138.85 43.7925C137.651 42.9095 136.269 42.3047 134.807 42.0219L124.892 40.0387L119.962 35.1087L117.979 25.1937C117.697 23.7313 117.092 22.3501 116.209 21.1504C115.326 19.9508 114.187 18.9628 112.874 18.2581C108.896 16.1417 104.722 14.4161 100.41 13.1056C98.9828 12.6755 97.4777 12.5683 96.0039 12.792C94.5302 13.0156 93.1247 13.5645 91.8894 14.3988L83.4869 20H76.5144L68.1125 14.3988C66.877 13.5645 65.4714 13.0157 63.9976 12.792C62.5237 12.5684 61.0186 12.6755 59.5912 13.1056C55.2798 14.4162 51.1057 16.1417 47.1275 18.2581C45.8147 18.9625 44.6753 19.9505 43.792 21.1503C42.9088 22.3501 42.3039 23.7316 42.0212 25.1944L40.0394 35.1081L35.1087 40.0387L25.195 42.0212C23.7324 42.3039 22.351 42.9087 21.1513 43.7917C19.9515 44.6747 18.9634 45.8138 18.2587 47.1262C16.142 51.1046 14.4163 55.279 13.1056 59.5906C12.6756 61.0178 12.5685 62.5228 12.7921 63.9965C13.0156 65.4702 13.5642 66.8758 14.3981 68.1112L20 76.5137V83.4862L14.3981 91.8887C13.5641 93.1242 13.0154 94.5297 12.7919 96.0034C12.5683 97.4772 12.6755 98.9822 13.1056 100.409C14.4159 104.721 16.1415 108.895 18.2581 112.874C18.9627 114.186 19.9508 115.325 21.1506 116.208C22.3503 117.091 23.7317 117.696 25.1944 117.979L35.1087 119.962L40.0387 124.892L42.0212 134.806C42.3039 136.269 42.9087 137.65 43.7917 138.85C44.6747 140.05 45.8138 141.038 47.1262 141.742C51.1045 143.859 55.2786 145.584 59.59 146.895C61.0172 147.325 62.5222 147.432 63.9959 147.208C65.4696 146.985 66.8751 146.436 68.1106 145.602L76.5137 140.001H83.4862L91.8894 145.603C93.5551 146.721 95.5149 147.321 97.5212 147.326C98.5001 147.325 99.4735 147.181 100.41 146.896C104.721 145.585 108.896 143.86 112.874 141.743C114.186 141.039 115.325 140.05 116.208 138.851C117.091 137.651 117.696 136.27 117.979 134.807L119.962 124.892L124.892 119.962L134.806 117.979C136.269 117.697 137.65 117.092 138.85 116.209C140.05 115.326 141.038 114.187 141.742 112.874C143.859 108.896 145.585 104.722 146.896 100.411C147.326 98.9834 147.433 97.4783 147.209 96.0046C146.985 94.5309 146.437 93.1254 145.602 91.89L140.001 83.4869ZM132.946 108.131C132.916 108.153 132.882 108.167 132.846 108.174L121.446 110.453C120.478 110.647 119.589 111.123 118.891 111.821L111.82 118.892C111.122 119.59 110.646 120.479 110.453 121.447L108.173 132.846C108.163 132.896 108.142 132.931 108.163 132.922C104.772 134.725 101.214 136.198 97.5406 137.32C97.5032 137.316 97.4674 137.303 97.4362 137.282L87.7737 130.841C86.9525 130.293 85.9873 130 85 130H75C74.0128 130 73.0477 130.292 72.2262 130.839L62.5637 137.281C62.5212 137.31 62.4744 137.319 62.5 137.327C58.8248 136.21 55.2653 134.743 51.8706 132.946C51.8483 132.916 51.8333 132.881 51.8269 132.845L49.5475 121.446C49.354 120.478 48.8782 119.588 48.18 118.891L41.1094 111.82C40.4113 111.122 39.5223 110.646 38.5544 110.452L27.1556 108.172C27.1206 108.165 27.0931 108.154 27.0831 108.154C27.0781 108.154 27.0769 108.156 27.0794 108.162C25.2761 104.77 23.8033 101.213 22.6812 97.5387C22.6851 97.5016 22.698 97.466 22.7187 97.435L29.16 87.7725C29.7074 86.9515 29.9997 85.9868 30 85V75C30 74.0128 29.7077 73.0476 29.16 72.2262L22.7187 62.5644C22.6906 62.5212 22.6812 62.475 22.6731 62.5C23.7904 58.8246 25.258 55.2649 27.0556 51.87C27.0851 51.8479 27.1193 51.8331 27.1556 51.8269L38.5544 49.5475C39.5224 49.3541 40.4115 48.8782 41.1094 48.18L48.1806 41.1087C48.8788 40.4109 49.3547 39.5218 49.5481 38.5537L51.8275 27.155C51.8375 27.105 51.8587 27.0725 51.8375 27.08C55.2294 25.2763 58.7871 23.8033 62.4612 22.6812C62.4973 22.6893 62.5321 22.7019 62.565 22.7187L72.2275 29.16C73.0484 29.7076 74.0131 29.9999 75 30H85C85.9872 30.0001 86.9524 29.7078 87.7737 29.16L97.4362 22.7187C97.4787 22.69 97.525 22.6812 97.5 22.6731C101.175 23.7902 104.735 25.2575 108.13 27.055C108.152 27.0844 108.167 27.1187 108.174 27.155L110.453 38.5544C110.647 39.5224 111.123 40.4114 111.821 41.1094L118.891 48.18C119.589 48.8779 120.478 49.3537 121.446 49.5475L132.844 51.8275C132.895 51.8369 132.929 51.8587 132.921 51.8375C134.724 55.229 136.197 58.7863 137.319 62.46C137.316 62.4973 137.303 62.5331 137.282 62.5644L130.84 72.2269C130.292 73.0482 130 74.0134 130 75.0006V85.0006C130 85.9876 130.292 86.9525 130.84 87.7737L137.282 97.4369C137.31 97.48 137.319 97.5256 137.327 97.5006C136.21 101.176 134.743 104.736 132.945 108.131H132.946Z" fill="#6D7275"/>
</svg>
