<svg width="160" height="160" viewBox="0 0 160 160" fill="none" xmlns="http://www.w3.org/2000/svg">
<path d="M143.535 96.465L130 82.93V65C129.984 52.6092 125.375 40.6642 117.063 31.4749C108.751 22.2856 97.3271 16.5047 85 15.25V5H75V15.25C62.6729 16.5047 51.2488 22.2856 42.9368 31.4749C34.6249 40.6642 30.0155 52.6092 30 65V82.93L16.465 96.465C15.5273 97.4025 15.0003 98.674 15 100V115C15 116.326 15.5268 117.598 16.4645 118.536C17.4021 119.473 18.6739 120 20 120H55V123.885C54.8912 130.228 57.127 136.388 61.2789 141.185C65.4308 145.982 71.2068 149.078 77.5 149.88C80.9759 150.225 84.4854 149.838 87.8029 148.745C91.1204 147.652 94.1724 145.877 96.7626 143.533C99.3528 141.19 101.424 138.33 102.843 135.138C104.261 131.946 104.996 128.493 105 125V120H140C141.326 120 142.598 119.473 143.536 118.536C144.473 117.598 145 116.326 145 115V100C145 98.674 144.473 97.4025 143.535 96.465ZM95 125C95 128.978 93.4196 132.794 90.6066 135.607C87.7936 138.42 83.9782 140 80 140C76.0218 140 72.2064 138.42 69.3934 135.607C66.5803 132.794 65 128.978 65 125V120H95V125ZM135 110H25V102.07L38.535 88.535C39.4727 87.5975 39.9997 86.326 40 85V65C40 54.3913 44.2143 44.2172 51.7157 36.7157C59.2172 29.2143 69.3913 25 80 25C90.6087 25 100.783 29.2143 108.284 36.7157C115.786 44.2172 120 54.3913 120 65V85C120 86.326 120.527 87.5975 121.465 88.535L135 102.07V110Z" fill="#6D7275"/>
</svg>
